<svg xmlns="http://www.w3.org/2000/svg" viewBox="0 0 1024 1024"><path d="M512 128c-212.5 0-384 171.5-384 384s171.5 384 384 384 384-171.5 384-384-171.5-384-384-384z" fill="#4a90d9"/><path d="M512 256c-141.4 0-256 114.6-256 256s114.6 256 256 256 256-114.6 256-256-114.6-256-256-256z" fill="#6ab0ff"/><path d="M512 352c-55.2 0-100 44.8-100 100s44.8 100 100 100 100-44.8 100-100-44.8-100-100-100z" fill="#fff"/><path d="M448 452c0-22.1 17.9-40 40-40s40 17.9 40 40-17.9 40-40 40-40-17.9-40-40z" fill="#4a90d9"/><path d="M576 452c0-22.1 17.9-40 40-40s40 17.9 40 40-17.9 40-40 40-40-17.9-40-40z" fill="#4a90d9"/><path d="M416 576h192v48h-192z" fill="#fff"/><path d="M384 688h256v48h-256z" fill="#fff"/></svg>