<svg xmlns="http://www.w3.org/2000/svg" viewBox="0 0 1024 1024"><path d="M512 64C264.6 64 64 264.6 64 512s200.6 448 448 448 448-200.6 448-448S759.4 64 512 64zm205.8 256c-11.5 0-20.8-9.4-20.8-20.8s9.4-20.8 20.8-20.8 20.8 9.4 20.8 20.8-9.3 20.8-20.8 20.8zm-411.6 0c-11.5 0-20.8-9.4-20.8-20.8s9.4-20.8 20.8-20.8 20.8 9.4 20.8 20.8-9.3 20.8-20.8 20.8zm321.8 108.2c-15.6 0-28.2 12.6-28.2 28.2s12.6 28.2 28.2 28.2 28.2-12.6 28.2-28.2-12.6-28.2-28.2-28.2zm-194.4 0c-15.6 0-28.2 12.6-28.2 28.2s12.6 28.2 28.2 28.2 28.2-12.6 28.2-28.2-12.6-28.2-28.2-28.2zm-127.4 0c-15.6 0-28.2 12.6-28.2 28.2s12.6 28.2 28.2 28.2 28.2-12.6 28.2-28.2-12.6-28.2-28.2-28.2z" fill="#4a90d9"/><path d="M512 192c-176.7 0-320 143.3-320 320 0 53.7 13.5 104.4 38.3 148.9C234.4 723.3 368.2 800 512 800c143.8 0 277.6-76.7 373.7-139.1 24.8-44.5 38.3-95.2 38.3-148.9 0-176.7-143.3-320-320-320zm-185.8 160c11.5 0 20.8-9.4 20.8-20.8s-9.3-20.8-20.8-20.8-20.8 9.4-20.8 20.8 9.3 20.8 20.8 20.8zm371.6 0c11.5 0 20.8-9.4 20.8-20.8s-9.3-20.8-20.8-20.8-20.8 9.4-20.8 20.8 9.3 20.8 20.8 20.8zm-263.4 136.2c15.6 0 28.2-12.6 28.2-28.2s-12.6-28.2-28.2-28.2-28.2 12.6-28.2 28.2 12.6 28.2 28.2 28.2zm194.4 0c15.6 0 28.2-12.6 28.2-28.2s-12.6-28.2-28.2-28.2-28.2 12.6-28.2 28.2 12.6 28.2 28.2 28.2zm-322.2 0c15.6 0 28.2-12.6 28.2-28.2s-12.6-28.2-28.2-28.2-28.2 12.6-28.2 28.2 12.6 28.2 28.2 28.2z" fill="#6ab0ff"/></svg>